<svg xmlns="http://www.w3.org/2000/svg" width="59" height="36" viewBox="0 0 59 36">
  <g id="Group_7230" data-name="Group 7230" transform="translate(-317 -579)">
    <rect id="Rectangle_3409" data-name="Rectangle 3409" width="59" height="36" rx="18" transform="translate(317 579)" fill="#aaa3a3"/>
    <path id="Icon_awesome-arrow-right" data-name="Icon awesome-arrow-right" d="M9.19,4.058l1.071-1.071a1.153,1.153,0,0,1,1.635,0l9.378,9.374a1.153,1.153,0,0,1,0,1.635L11.9,23.375a1.153,1.153,0,0,1-1.635,0L9.19,22.3a1.159,1.159,0,0,1,.019-1.655l5.813-5.538H1.158A1.155,1.155,0,0,1,0,13.953V12.409a1.155,1.155,0,0,1,1.158-1.158H15.023L9.21,5.713A1.151,1.151,0,0,1,9.19,4.058Z" transform="translate(335.692 583.819)" fill="#fff"/>
  </g>
</svg>
