<svg xmlns="http://www.w3.org/2000/svg" width="23.224" height="16.256" viewBox="0 0 23.224 16.256">
  <path id="Icon_awesome-money-bill-wave-alt" data-name="Icon awesome-money-bill-wave-alt" d="M22.54,3.065a10.746,10.746,0,0,0-4.224-.815c-4.469,0-8.938,2.262-13.408,2.262a11.01,11.01,0,0,1-3.362-.5,1.241,1.241,0,0,0-.376-.059A1.155,1.155,0,0,0,0,5.11V16.622a1.154,1.154,0,0,0,.684,1.069,10.74,10.74,0,0,0,4.224.815c4.469,0,8.939-2.262,13.408-2.262a11.01,11.01,0,0,1,3.362.5,1.241,1.241,0,0,0,.376.059,1.155,1.155,0,0,0,1.17-1.154V4.134A1.155,1.155,0,0,0,22.54,3.065Zm-10.928,10.8a3.233,3.233,0,0,1-2.9-3.483,3.233,3.233,0,0,1,2.9-3.483,3.233,3.233,0,0,1,2.9,3.483A3.233,3.233,0,0,1,11.612,13.862Z" transform="translate(0 -2.25)" fill="#828282"/>
</svg>
